<svg width="187" height="187" viewBox="0 0 187 187" fill="none" xmlns="http://www.w3.org/2000/svg">
    <path d="M174.417 116.828v1.947c0 .895-.048 1.79-.144 2.68a24.607 24.607 0 0 1-2.867 9.166 24.825 24.825 0 0 1-14.345 11.789 24.859 24.859 0 0 1-7.396 1.122h-10.047a5.107 5.107 0 0 0-5.107 5.109V167.7H60.25a11.151 11.151 0 0 1-11.153-11.153v-7.904a5.104 5.104 0 0 0-3.247-4.756 4.897 4.897 0 0 0-1.002-.278 4.771 4.771 0 0 0-.86-.075H38.31c-.266 0-.53 0-.797-.012a25.642 25.642 0 0 1-15.766-6.028 25.817 25.817 0 0 1-4.836-5.405 25.784 25.784 0 0 1-2.887-22.814 25.71 25.71 0 0 1 24.282-17.204h8.613a6.666 6.666 0 0 0 4.587-1.821l.142-.137A6.687 6.687 0 0 0 46.92 78.7h-5.397a15.596 15.596 0 0 1-10.93-4.46l-.123-.123a15.634 15.634 0 0 1 0-22.111c.039-.041.08-.083.123-.122l.04-.04a15.61 15.61 0 0 1 10.89-4.418 12.938 12.938 0 0 0 8.698-3.353c.198-.187.39-.374.581-.56a12.95 12.95 0 0 0 2.704-4.1 12.788 12.788 0 0 0 .974-4.938V21.27a5.109 5.109 0 0 1 5.11-5.109h90.99a15.62 15.62 0 0 1 13.318 7.447c.129.204.252.411.374.622a15.616 15.616 0 0 1 1.805 5.455c.097.7.146 1.405.145 2.111 0 .543-.03 1.078-.08 1.605a16.411 16.411 0 0 1-.318 1.92 15.65 15.65 0 0 1-15.239 12.109h-12.716a9.075 9.075 0 0 0-8.409 5.63 9.043 9.043 0 0 0-.681 3.452 9.101 9.101 0 0 0 2.664 6.426 9.092 9.092 0 0 0 6.426 2.66c.165 0 .33.004.494.012a11.719 11.719 0 0 1 5.047 1.372 11.762 11.762 0 0 1 6.242 10.401v8.041a8.211 8.211 0 0 0 5.844 7.873 35.43 35.43 0 0 1 4.352 1.612c1.051.47 2.074.998 3.066 1.582a26.347 26.347 0 0 1 3.817 2.725 22.023 22.023 0 0 1 4.163 4.755 21.196 21.196 0 0 1 2.455 5.303c.234.766.428 1.543.582 2.328.331 1.722.494 3.472.486 5.225z" fill="#FEFDF3"/>
    <path d="M162.914 96.492a26.34 26.34 0 0 1 3.817 2.725c-.65.276-1.35.418-2.057.417H74.748a5.259 5.259 0 0 1-5.259-5.257v-48.59a5.26 5.26 0 0 1 5.259-5.258h88.804a15.678 15.678 0 0 1-12.972 6.898h-12.716a9.07 9.07 0 0 0-8.144 5.049 9.024 9.024 0 0 0-.946 4.034 9.083 9.083 0 0 0 5.612 8.395 9.086 9.086 0 0 0 3.478.69c.164 0 .329.005.494.012a11.711 11.711 0 0 1 5.047 1.373 11.777 11.777 0 0 1 6.242 10.4v8.042a8.21 8.21 0 0 0 5.843 7.872c1.485.442 2.938.98 4.352 1.612 1.053.47 2.079 1 3.072 1.586z" fill="#D2D6FA"/>
    <path d="M162.914 96.492a4.73 4.73 0 0 1-2.201.537H78.708a4.793 4.793 0 0 1-4.793-4.793V47.928a4.79 4.79 0 0 1 4.793-4.795h82.005c.197 0 .394.013.589.038a15.575 15.575 0 0 1-10.722 4.256h-12.716a9.07 9.07 0 0 0-8.144 5.049 9.024 9.024 0 0 0-.946 4.034 9.082 9.082 0 0 0 5.612 8.395 9.088 9.088 0 0 0 3.478.69c.164 0 .329.005.494.012a11.713 11.713 0 0 1 5.047 1.373 11.775 11.775 0 0 1 6.242 10.4v8.042a8.21 8.21 0 0 0 5.843 7.872c1.485.442 2.938.98 4.352 1.612 1.053.47 2.079 1 3.072 1.586z" fill="#F1F2FD"/>
    <path d="M174.417 116.828v1.947c0 .895-.048 1.79-.144 2.68a24.599 24.599 0 0 1-5.023 12.458H72.986v-16.791a5.518 5.518 0 0 1 5.518-5.519h95.425c.331 1.722.495 3.472.488 5.225z" fill="#7F93C9"/>
    <path d="M174.417 118.502v.273c0 .895-.048 1.79-.144 2.68H72.986v-2.953h101.431zM172.393 128.594a24.82 24.82 0 0 1-13.275 13.068h-86.58a6.536 6.536 0 0 1-4.62-11.154 6.536 6.536 0 0 1 4.62-1.914h99.855z" fill="#D2D6FA"/>
    <path d="M129.464 55.009a8.44 8.44 0 0 0-.561 1.838H69.489V55.01h59.975zM142.458 43h.96v6.61h-.96V43zM142.458 67.912c.328.132.648.278.958.438v31.284h-.958V67.912z" fill="#7F93C9"/>
    <path d="M94.828 43v56.632h-.96V43h.96z" fill="#7F93C9"/>
    <path d="M159.118 141.662c-.671.278-1.361.529-2.057.748a24.859 24.859 0 0 1-7.396 1.122h-10.047a5.107 5.107 0 0 0-5.107 5.109v18.911H82.757v-25.89h76.361z" fill="#CBD2F7"/>
    <path d="M165.149 26.114H54.481v-2.509h109.417c.129.204.253.411.374.623.334.608.627 1.239.877 1.886z" fill="#7986BF"/>
    <path d="M124.033 21.267h-.001c-.83 0-1.502.673-1.502 1.502v6.192c0 .829.672 1.501 1.502 1.501h.001c.83 0 1.502-.672 1.502-1.501v-6.192c0-.83-.672-1.502-1.502-1.502z" fill="#7986BF"/>
    <path d="M123.252 28.284h1.559v13.505h-1.559V28.284z" fill="#7986BF"/>
    <path d="M124.032 56.272a7.657 7.657 0 1 1 7.667-7.658 7.672 7.672 0 0 1-7.667 7.658zm0-13.65a5.997 5.997 0 0 0-4.241 10.232 5.994 5.994 0 1 0 4.241-10.233z" fill="#7986BF"/>
    <path d="M24.835 170.841h9.328c.862 0 1.562-.699 1.562-1.561v-.17c0-.863-.7-1.562-1.562-1.562h-9.327c-.863 0-1.562.699-1.562 1.562v.17c0 .862.7 1.561 1.561 1.561zM38.492 170.841h133.034c.862 0 1.561-.699 1.561-1.561v-.17c0-.863-.699-1.562-1.561-1.562H38.492c-.862 0-1.561.699-1.561 1.562v.17c0 .862.699 1.561 1.561 1.561z" fill="#D2D6FA"/>
    <path d="M76.966 66.856a4.576 4.576 0 1 0 0-9.152 4.576 4.576 0 0 0 0 9.152z" fill="#4E3636"/>
    <path d="M81.543 62.28c0 .211-.015.422-.047.63a4.573 4.573 0 0 0-9.06 0 4.576 4.576 0 1 1 9.107-.63z" fill="#594444"/>
    <path d="M76.967 69.472a4.576 4.576 0 1 0 0-9.151 4.576 4.576 0 0 0 0 9.151z" fill="#FFBF49"/>
    <path d="M63.358 103.018s2.393-17.39 10.967-23.773" stroke="#339FA1" stroke-width="5" stroke-miterlimit="10" stroke-linecap="round"/>
    <path d="M61.566 56.663a1.224 1.224 0 1 0 2.444-.127l-.198-3.804a1.225 1.225 0 1 0-2.445.127l.199 3.804z" fill="#FFB2BF"/>
    <path d="M61.747 59.33a2.41 2.41 0 1 0 0-4.821 2.41 2.41 0 0 0 0 4.82z" fill="#FF6D8D"/>
    <path d="M73.272 84.711a3.401 3.401 0 0 1-4.559-1.55l-1.324-2.686-9.677-19.634a3.408 3.408 0 0 1 1.518-4.621 3.404 3.404 0 0 1 4.59 1.61l7.4 15.02 1.923 3.902 1.683 3.402a3.405 3.405 0 0 1-1.554 4.557z" fill="#FFB2BF"/>
    <path d="M61.972 61.575c1.987-.756 2.872-3.28 1.975-5.638-.897-2.359-3.235-3.658-5.223-2.902-1.987.756-2.872 3.28-1.975 5.639.897 2.358 3.235 3.657 5.223 2.901z" fill="#FFB2BF"/>
    <path d="M83.653 68.2v9.207c0 .34-.365.615-.814.615h-1.38a.389.389 0 0 1-.374-.22l-.277-.758a.148.148 0 0 0-.256 0l-.288.765a.393.393 0 0 1-.374.217h-5.236a.386.386 0 0 1-.383-.234l-.374-1.29a.155.155 0 0 0-.275 0l-.424 1.29a.39.39 0 0 1-.384.226h-1.333c-.45 0-.814-.275-.814-.615v-9.202h12.986z" fill="#422A2A"/>
    <path d="M78.57 127.018h6.925v38.898H78.57v-38.898zM75.623 165.916h-6.925v-38.898h6.925v38.898z" fill="#FFB2BF"/>
    <path d="M78.57 127.018h6.925v4.58H78.57v-4.58zM75.623 131.598h-6.925v-4.58h6.925v4.58z" fill="#F9A0B4"/>
    <path d="M78.405 167.032h6.983a3.492 3.492 0 0 0-6.983 0z" fill="#A5254A"/>
    <path d="M85.833 167.552h-7.502a1.185 1.185 0 1 1 .115-2.364l7.456.724a.825.825 0 0 1 .748.817.823.823 0 0 1-.817.823z" fill="#B83153"/>
    <path d="M68.747 167.032h6.988a3.492 3.492 0 0 0-6.983 0h-.005z" fill="#A5254A"/>
    <path d="M75.901 167.552h-7.49a1.187 1.187 0 0 1-.798-2.063 1.185 1.185 0 0 1 .911-.301l7.458.724a.825.825 0 0 1 .748.817.82.82 0 0 1-.512.762.818.818 0 0 1-.317.061zM58.495 128.755h37.213a2.38 2.38 0 0 0 2.31-1.849c.08-.347.082-.707.004-1.055-2.542-10.883-6.545-20.727-14.558-26.208h-12.65c-7.855 6.784-12.406 15.751-14.647 26.236a2.38 2.38 0 0 0 2.328 2.876z" fill="#B83153"/>
    <path d="M95.7 128.755h-2.467a2.373 2.373 0 0 0 2.324-2.904c-2.538-10.883-6.545-20.727-14.558-26.208h2.465c8.016 5.481 12.02 15.334 14.56 26.208a2.378 2.378 0 0 1-1.293 2.67 2.394 2.394 0 0 1-1.032.234z" fill="#CC3E66"/>
    <path d="M74.733 72.537v6.26a2.235 2.235 0 0 0 4.467 0v-6.26a2.237 2.237 0 0 0-2.234-2.299 2.234 2.234 0 0 0-2.233 2.3z" fill="#FFB2BF"/>
    <path d="M70.65 89.893v9.591a6.5 6.5 0 1 0 13 0v-9.591h-13z" fill="#B83153"/>
    <path d="m90.147 95.51.048-.032a3.55 3.55 0 0 0 1.004-4.918l-6.438-9.741a3.55 3.55 0 0 0-4.918-1.004l-.048.032a3.55 3.55 0 0 0-1.004 4.918l6.438 9.74a3.55 3.55 0 0 0 4.918 1.005z" fill="#FFB2BF"/>
    <path d="M70.65 87.636v9.6l13-2.816v-6.784h-13z" fill="#AA2249"/>
    <path d="M86.078 88.077v.33a4.396 4.396 0 0 1-4.396 4.395h-9.435a4.396 4.396 0 0 1-4.394-4.396v-.329a9.057 9.057 0 0 1 1.361-4.79c1.889 1.37 4.662 2.232 7.753 2.232s5.86-.862 7.75-2.233a9.047 9.047 0 0 1 1.361 4.791z" fill="#B83153"/>
    <path d="M70.65 98.205h13.003v1.548H70.65v-1.548z" fill="#FFBF49"/>
    <path d="m83.739 102.267-1.997-3.458a.514.514 0 1 0-.89.514l1.996 3.458a.514.514 0 0 0 .89-.514z" fill="#FFBF49"/>
    <path d="m80.34 101.968.99-3.225a.514.514 0 1 0-.983-.302l-.99 3.225a.515.515 0 0 0 .983.302z" fill="#FFBF49"/>
    <path d="M86.078 88.077v.33a4.396 4.396 0 0 1-4.396 4.395h-2.934a9.798 9.798 0 0 0 4.226-8.065c0-.148 0-.295-.011-.441a10.164 10.164 0 0 0 1.754-1.01 9.058 9.058 0 0 1 1.361 4.791z" fill="#CC3E66"/>
    <path d="M74.733 72.537v4.83a5.431 5.431 0 0 0 4.467.117v-4.947a2.237 2.237 0 0 0-2.234-2.299 2.234 2.234 0 0 0-2.233 2.3z" fill="#F9A0B4"/>
    <path d="M71.38 72.3a2.281 2.281 0 1 0 0-4.563 2.281 2.281 0 0 0 0 4.563z" fill="#FFB2BF"/>
    <path d="M77.098 77.24c3.561 0 6.448-3.487 6.448-7.79s-2.887-7.79-6.448-7.79c-3.56 0-6.448 3.487-6.448 7.79 0 4.302 2.887 7.79 6.448 7.79z" fill="#FFB2BF"/>
    <path d="M70.033 69.938a.99.99 0 0 1 .606-.913.284.284 0 0 1 .384.27v1.284a.286.286 0 0 1-.41.258.987.987 0 0 1-.58-.899z" fill="#F9A0B4"/>
    <path d="M74.615 70.989a.49.49 0 1 0 0-.98.49.49 0 0 0 0 .98zM79.503 70.989a.49.49 0 1 0 0-.98.49.49 0 0 0 0 .98z" fill="#4E3636"/>
    <path d="M78.231 72.492a1.048 1.048 0 0 1-.387.818c-.192.159-.434.246-.684.246h-.043a1.089 1.089 0 0 1-.942-.534 1.06 1.06 0 0 1-.139-.432v-.088a.208.208 0 0 1 .208-.208l1.782-.013a.208.208 0 0 1 .206.211z" fill="#962F4A"/>
    <path d="M77.137 73.397c.001.056-.004.11-.014.165a1.073 1.073 0 0 1-1.081-.967.855.855 0 0 1 1.101.802h-.006z" fill="#E1617F"/>
    <path d="M77.979 72.289c0 .207-.331.374-.733.374-.402 0-.728-.163-.737-.374h1.47zM77.844 73.313c-.192.16-.434.248-.684.247h-.043a1.088 1.088 0 0 1-.636-.2.749.749 0 0 1 .69-.374.774.774 0 0 1 .673.327z" fill="#fff"/>
    <path d="M88.014 104.625a2.982 2.982 0 1 0-5.474 2.364l1.033 2.393a2.982 2.982 0 1 0 5.475-2.364l-1.034-2.393z" fill="#FFB2BF"/>
    <path d="M82.453 104.626a2.968 2.968 0 0 0 5.722 1.575l3.458-12.563a2.968 2.968 0 1 0-5.722-1.575l-3.458 12.563z" fill="#FFB2BF"/>
    <path d="M88.014 104.625a2.982 2.982 0 1 0-5.474 2.364l1.033 2.393a2.982 2.982 0 1 0 5.475-2.364l-1.034-2.393z" fill="#FFB2BF"/>
    <path d="m91.473 94.55-3.04 11.032.616 1.427a2.983 2.983 0 0 1-3.227 4.125 2.99 2.99 0 0 0 2.242-4.125l-.07-.163-.545-1.26.374-1.348 2.3-8.352s1.382-3.457.247-5.092l-.46-.697-6.117-9.253a3.57 3.57 0 0 0-2.502-1.571 3.585 3.585 0 0 1 3.487 1.57l6.577 9.951c.679.931.814 2.012.118 3.755z" fill="#FDC3CD"/>
    <path d="M84.711 83.277c-.55.394-1.137.732-1.754 1.01a14.587 14.587 0 0 1-5.995 1.222c-3.091 0-5.865-.862-7.753-2.23.088-.144.187-.285.276-.421.305-.442.65-.855 1.03-1.233a8.813 8.813 0 0 1 1.691-1.33 8.77 8.77 0 0 1 1.485-.734 9.11 9.11 0 0 1 6.713.071 8.81 8.81 0 0 1 1.31.666c.097.058.186.121.287.187a8.7 8.7 0 0 1 .948.724 8.87 8.87 0 0 1 1.625 1.86c.055.067.1.146.137.208z" fill="#FFB2BF"/>
    <path d="M84.15 138.61a.995.995 0 0 0-1.99 0v18.165a.995.995 0 1 0 1.99 0V138.61z" fill="#FDC3CD"/>
    <path d="M81.203 99.013c.293-.393-.018-1.123-.697-1.63-.678-.507-1.466-.6-1.76-.206-.293.393.018 1.122.697 1.63.678.506 1.466.599 1.76.206z" fill="#FFBF49"/>
    <path d="M81.847 98.626c.507-.679.6-1.467.206-1.76-.393-.294-1.122.018-1.63.696-.506.679-.599 1.467-.206 1.76.393.294 1.123-.018 1.63-.696z" fill="#FFBF49"/>
    <path d="M85.304 108.434c.427 0 .774-.707.774-1.578 0-.872-.347-1.579-.774-1.579-.428 0-.774.707-.774 1.579 0 .871.346 1.578.774 1.578z" fill="#FDC3CD"/>
    <path d="M82.964 72.3a2.281 2.281 0 1 0 0-4.563 2.281 2.281 0 0 0 0 4.563z" fill="#FFB2BF"/>
    <path d="M84.04 69.938a.986.986 0 0 1-.604.913.284.284 0 0 1-.384-.27v-1.284a.287.287 0 0 1 .41-.258.988.988 0 0 1 .578.899z" fill="#F9A0B4"/>
    <path d="M83.254 68.2h-2.717a.283.283 0 0 1-.273-.21l-.24-.949a.187.187 0 0 0-.355-.015l-.373 1.07a.156.156 0 0 1-.148.105h-.328a.155.155 0 0 1-.151-.12l-.262-1.038a.187.187 0 0 0-.357-.015l-.337.965a.309.309 0 0 1-.291.208H70.94a.375.375 0 0 1-.364-.408c.374-3.49 3.153-6.199 6.522-6.199 3.37 0 6.145 2.71 6.52 6.2a.373.373 0 0 1-.364.407z" fill="#4E3636"/>
    <path d="M83.62 67.793a.375.375 0 0 1-.134.325c-.682-3.09-3.284-5.389-6.388-5.389s-5.705 2.298-6.388 5.39a.374.374 0 0 1-.134-.326c.374-3.49 3.154-6.199 6.522-6.199 3.368 0 6.147 2.71 6.523 6.2z" fill="#594444"/>
    <path d="M74.325 78.553s3.876 21.522-6.979 27.876" stroke="#339FA1" stroke-width="5" stroke-miterlimit="10" stroke-linecap="round"/>
    <path d="M68.303 109.595c1.035-1.792-.18-4.43-2.711-5.892-2.532-1.462-5.424-1.194-6.459.598-1.035 1.793.18 4.431 2.711 5.893 2.532 1.462 5.424 1.194 6.459-.599z" fill="#339FA1"/>
    <path d="M68.302 109.595a2.9 2.9 0 0 1-1.46 1.232c.057-1.604-1.113-3.444-3.077-4.579-1.733-1.001-3.635-1.19-4.996-.634a2.76 2.76 0 0 1 .373-1.309c1.033-1.792 3.927-2.057 6.456-.599 2.528 1.459 3.742 4.096 2.704 5.889z" fill="#277C83"/>
    <path d="M65.198 107.484c.334-.579-.057-1.43-.873-1.901-.817-.472-1.75-.385-2.084.194-.334.578.057 1.43.874 1.901.816.472 1.75.385 2.083-.194z" fill="#FFBF49"/>
    <path d="M68.553 106.752a.934.934 0 1 0-1.093-1.514.934.934 0 0 0 1.093 1.514zM63.91 103.778a.932.932 0 1 0-1.089-1.513.932.932 0 0 0 1.09 1.513z" fill="#277C83"/>
    <path d="M59.896 21.267h-.002c-.83 0-1.501.673-1.501 1.502v6.192c0 .829.672 1.501 1.501 1.501h.002c.83 0 1.502-.672 1.502-1.501v-6.192c0-.83-.673-1.502-1.502-1.502z" fill="#7986BF"/>
    <path d="M59.114 28.284h1.56v13.505h-1.56V28.284z" fill="#7986BF"/>
    <path d="M59.896 56.272a7.666 7.666 0 1 1-.023-15.333 7.666 7.666 0 0 1 .023 15.333zm0-13.651a5.996 5.996 0 1 0 5.993 5.999 6.001 6.001 0 0 0-5.993-5.999z" fill="#7986BF"/>
    <path d="M72.726 54.961a1.262 1.262 0 1 0 2.488-.42l-.473-2.794a1.262 1.262 0 1 0-2.487.42l.472 2.794z" fill="#FFB2BF"/>
    <path d="M70.923 55.88a1.262 1.262 0 1 0 2.487-.42l-.472-2.793a1.262 1.262 0 1 0-2.487.42l.472 2.794z" fill="#FFB2BF"/>
    <path d="M69.132 56.582a1.262 1.262 0 1 0 2.487-.421l-.472-2.794a1.262 1.262 0 1 0-2.488.421l.473 2.794z" fill="#FFB2BF"/>
    <path d="M121.671 95.118a4.297 4.297 0 0 0-4.942-7.032l-17.286 12.148a4.297 4.297 0 0 0 4.942 7.032l17.286-12.148z" fill="#E2EAF7"/>
    <path d="M123.059 89.695a4.302 4.302 0 0 0-5.578-.548l-17.284 12.155a4.298 4.298 0 0 0-1.38 5.423 4.3 4.3 0 0 1 .634-6.48l17.286-12.155a4.3 4.3 0 0 1 5.984 1.045c.126.178.24.365.338.56z" fill="#F5F9FF"/>
    <path d="M145.782 107.276a4.297 4.297 0 1 0 4.942-7.032l-17.285-12.148a4.298 4.298 0 0 0-4.942 7.032l17.285 12.148z" fill="#E2EAF7"/>
    <path d="M152.386 104.907a4.288 4.288 0 0 0-1.817-3.265l-17.287-12.155a4.3 4.3 0 0 0-5.984 1.045 4.22 4.22 0 0 0-.624 1.31v-.255a4.297 4.297 0 0 1 2.321-3.805 4.299 4.299 0 0 1 4.446.295l17.281 12.155a4.303 4.303 0 0 1 1.664 4.675z" fill="#F5F9FF"/>
    <path d="M131.192 158.241h6.36v7.607h-6.36v-7.607z" fill="#F0A284"/>
    <path d="M131.192 158.241h6.36v3.938h-6.36v-3.938z" fill="#D85E66"/>
    <path d="M130.9 162.503h2.296a2.084 2.084 0 0 1 1.469.609 2.068 2.068 0 0 1 .609 1.469v1.273H130.9v-3.351z" fill="#28468E"/>
    <path d="m131.676 164.635 3.366-.221a3.61 3.61 0 0 1 4.074-1.449 3.61 3.61 0 0 1 2.546 3.495l-7.226-.088-3.603-.045.011-.81a.897.897 0 0 1 .832-.882z" fill="#28468E"/>
    <path d="M137.716 162.817a3.612 3.612 0 0 1 3.194 3.634h.748a3.611 3.611 0 0 0-3.57-3.658c-.125.009-.248.013-.372.024z" fill="#4286F1"/>
    <path d="M130.152 166.849a.564.564 0 0 0 .479.561.445.445 0 0 0 .073 0l10.771.131c.03.002.06.002.09 0a.851.851 0 0 0 .768-.834.85.85 0 0 0-.748-.853.999.999 0 0 0-.134 0l-.416.017-1.181.048-.55.025-1.182.048-.55.023-1.182.048-.549.025-1.182.048-.55.023-1.182.048-.55.025-1.182.048-.508.021h-.043a.562.562 0 0 0-.492.548z" fill="#1B366D"/>
    <path d="m141.032 165.869-.021 1.672h.55l.02-1.693a1.497 1.497 0 0 0-.134 0l-.415.021zM139.3 165.94l-.019 1.578.55.008.019-1.61-.55.024zM137.568 166.011l-.018 1.487.549.005.019-1.514-.55.022zM135.837 166.084l-.017 1.393.55.006.017-1.423-.55.024zM134.105 166.155l-.017 1.3.55.007.017-1.329-.55.022zM132.373 166.228l-.014 1.206.549.008.015-1.238-.55.024zM130.64 166.301l-.013 1.122h.55l.015-1.143-.509.021h-.043z" fill="#28468E"/>
    <path d="M132.75 165.852a1.015 1.015 0 1 0 0-2.03 1.015 1.015 0 0 0 0 2.03z" fill="#4286F1"/>
    <path d="M132.75 165.852a1.015 1.015 0 1 0 0-2.03 1.015 1.015 0 0 0 0 2.03z" fill="#4286F1"/>
    <path d="M132.708 164.033a.71.71 0 0 1 .159.024.8.8 0 0 0-.084 1.567.74.74 0 0 1-.163 0 .8.8 0 1 1 .088-1.597v.006z" fill="#1B366D"/>
    <path d="M132.637 165.388a.53.53 0 0 1-.112-.016.563.563 0 0 0 .06-1.094.723.723 0 0 1 .114 0 .554.554 0 0 1 .388.186.56.56 0 0 1-.044.793.574.574 0 0 1-.406.143v-.012z" fill="#76AEFF"/>
    <path d="m146.572 122.497-1.222 6.241-7.465-1.462 1.222-6.241 7.465 1.462z" fill="#F0A284"/>
    <path d="m142.974 121.791-1.222 6.242-3.865-.757 1.222-6.242 3.865.757z" fill="#D85E66"/>
    <path d="m146.629 122.22-.841 4.292-1.25-.245a2.077 2.077 0 0 1-1.639-2.438l.441-2.253 3.289.644z" fill="#28468E"/>
    <path d="m145.299 122.749-.862 3.255a3.613 3.613 0 0 0 .737 6.889l1.309-7.106.649-3.553-.797-.145a.894.894 0 0 0-1.036.66z" fill="#28468E"/>
    <path d="M142.352 128.327a3.615 3.615 0 0 0 2.947 3.833l-.133.733a3.595 3.595 0 0 1-1.31-.519 3.609 3.609 0 0 1-1.594-3.684c.026-.124.056-.245.09-.363z" fill="#4286F1"/>
    <path d="M147.762 121.673a.567.567 0 0 1 .456.578.297.297 0 0 1 0 .073l-1.948 10.596a.849.849 0 0 1-1.509.369.845.845 0 0 1-.15-.719l.097-.404.275-1.15.129-.535.275-1.15.129-.537.275-1.15.127-.534.275-1.151.129-.536.275-1.15.129-.535.275-1.15.118-.494a.562.562 0 0 1 .643-.417v-.004z" fill="#1B366D"/>
    <path d="m144.708 132.166 1.646.301-.099.54-1.665-.304c.005-.045.011-.089.021-.133l.097-.404zM145.112 130.481l1.554.284-.101.541-1.582-.29.129-.535zM145.516 128.794l1.46.268-.099.542-1.49-.273.129-.537zM145.918 127.109l1.371.251-.099.541-1.399-.257.127-.535zM146.322 125.423l1.279.234-.099.542-1.309-.24.129-.536zM146.726 123.738l1.187.217-.099.542-1.217-.222.129-.537zM147.132 122.051l1.092.2-.099.543-1.122-.206.117-.494a.345.345 0 0 1 .012-.043z" fill="#28468E"/>
    <path d="M145.288 124.856a1.014 1.014 0 1 0 0-2.031 1.016 1.016 0 0 0 0 2.031z" fill="#4286F1"/>
    <path d="M145.288 124.856a1.014 1.014 0 1 0 0-2.031 1.016 1.016 0 0 0 0 2.031z" fill="#4286F1"/>
    <path d="M144.506 123.644a.887.887 0 0 0 0 .163.799.799 0 0 1 1.343-.278c.125.136.2.311.211.495a.853.853 0 0 0 .02-.469.815.815 0 0 0-.369-.489.782.782 0 0 0-.295-.103.795.795 0 0 0-.904.681h-.006z" fill="#1B366D"/>
    <path d="M145.86 123.837a.543.543 0 0 0 0-.114.565.565 0 0 1-.603.359.56.56 0 0 1-.482-.511.566.566 0 0 0 .178.643.546.546 0 0 0 .448.111.569.569 0 0 0 .379-.264.563.563 0 0 0 .076-.224h.004z" fill="#76AEFF"/>
    <path d="M135.562 121.455h-21.38a3.57 3.57 0 1 0 0 7.139h21.38a3.57 3.57 0 0 0 0-7.139z" fill="#007494"/>
    <path d="M136.256 122.072h-22.769l-1.356-23.08a12.765 12.765 0 0 1 3.454-9.504 12.764 12.764 0 0 1 22.026 9.505l-1.355 23.079z" fill="#FCFFFF"/>
    <path d="m118.633 120.771-2.814-3.725a4.88 4.88 0 0 0-6.836-.952l-.001.001a4.882 4.882 0 0 0-.953 6.837l2.814 3.724a4.88 4.88 0 0 0 6.836.952l.002-.001a4.88 4.88 0 0 0 .952-6.836z" fill="#007494"/>
    <path d="m131.932 106.431 3.711.733a2.027 2.027 0 0 0 2.381-1.596l.001-.002a2.028 2.028 0 0 0-1.596-2.382l-3.712-.732a2.026 2.026 0 0 0-2.381 1.596v.001a2.027 2.027 0 0 0 1.596 2.382z" fill="#F0A284"/>
    <path d="M139.132 126.21v34.522a.661.661 0 0 1-.662.662h-8.44a.665.665 0 0 1-.662-.662V126.21a4.753 4.753 0 0 1 4.747-4.755h.261a4.758 4.758 0 0 1 4.756 4.755z" fill="#3980E5"/>
    <path d="m117.453 102.453-3.711.733a2.027 2.027 0 0 0-1.596 2.382v.001a2.026 2.026 0 0 0 2.381 1.596l3.712-.732a2.028 2.028 0 0 0 1.596-2.382l-.001-.002a2.027 2.027 0 0 0-2.381-1.596z" fill="#F0A284"/>
    <path d="M118.038 77.609h-.28V73.47a3.154 3.154 0 0 1 3.156-3.154h.281v4.136a3.157 3.157 0 0 1-3.157 3.157z" fill="#2F3D6C"/>
    <path d="M127.951 77.979v8.346a2.849 2.849 0 0 1-1.738 2.694 2.847 2.847 0 0 1-3.949-2.694v-8.346a2.854 2.854 0 0 1 1.738-2.694 2.846 2.846 0 0 1 3.949 2.694z" fill="#F0A284"/>
    <path d="M127.951 77.979v7.546a6.05 6.05 0 0 1-5.687.14v-7.686a2.854 2.854 0 0 1 1.738-2.694 2.846 2.846 0 0 1 3.949 2.694z" fill="#D85E66"/>
    <path d="M131.074 75.06v.4l-.045 3.641a6.053 6.053 0 0 1-12.105-.136l.045-3.978a6.058 6.058 0 0 1 6.085-5.92 6.053 6.053 0 0 1 6.02 5.985v.008z" fill="#F0A284"/>
    <path opacity=".35" d="M131.074 75.06v.4l-1.936.748a6.86 6.86 0 0 1-8.86-3.953l-.237-.634a6.052 6.052 0 0 1 11.033 3.433v.006z" fill="#D85E66"/>
    <path d="M128.017 77.231a.898.898 0 0 1-.893.853.895.895 0 0 1-.893-.853c0-.063.007-.125.02-.187a.896.896 0 0 0 .874.703.894.894 0 0 0 .873-.703c.012.062.018.124.019.187zM123.74 77.231a.894.894 0 0 1-1.786 0c0-.063.007-.125.021-.187a.887.887 0 0 0 .872.706.893.893 0 0 0 .872-.706.98.98 0 0 1 .021.187z" fill="#374453"/>
    <path d="M132.686 77.857a2.348 2.348 0 0 1-1.932 1.945.326.326 0 0 1-.383-.321v-3.987a.32.32 0 0 1 .374-.322 2.343 2.343 0 0 1 1.941 2.685z" fill="#F0A284"/>
    <path d="M125.836 79.323a.819.819 0 0 1-.843.795h-.034a.795.795 0 0 1-.477-.17.826.826 0 0 1-.316-.604v-.07a.16.16 0 0 1 .165-.153l1.352.042c.041.001.081.019.109.049.029.03.045.07.044.111z" fill="#962F4A"/>
    <path d="M124.98 79.991a.778.778 0 0 1-.017.127.819.819 0 0 1-.793-.776.654.654 0 0 1 .753.356.642.642 0 0 1 .06.293h-.003z" fill="#E1617F"/>
    <path d="M125.651 79.159c-.011.16-.262.282-.561.273-.299-.01-.548-.144-.548-.307l1.109.034zM125.518 79.948a.82.82 0 0 1-.525.17h-.034a.81.81 0 0 1-.477-.172.563.563 0 0 1 .533-.273.578.578 0 0 1 .503.275z" fill="#fff"/>
    <path d="M119.113 79.832a2.344 2.344 0 1 0 .001-4.689 2.344 2.344 0 0 0-.001 4.69z" fill="#F0A284"/>
    <path d="M117.76 77.431a1.016 1.016 0 0 0 .618.935.293.293 0 0 0 .362-.139.293.293 0 0 0 .033-.136v-1.324a.292.292 0 0 0-.138-.248.293.293 0 0 0-.283-.017 1.02 1.02 0 0 0-.592.93zM131.859 77.431a1.016 1.016 0 0 1-.619.935.29.29 0 0 1-.363-.138.284.284 0 0 1-.033-.137v-1.324a.292.292 0 0 1 .138-.248.293.293 0 0 1 .283-.017 1.02 1.02 0 0 1 .594.93z" fill="#D85E66"/>
    <path d="m119.919 68.745 3.902-1.495a5.895 5.895 0 0 1 7.611 3.394l.79 2.063a.907.907 0 0 1-.523 1.171l-2.968 1.137a6.863 6.863 0 0 1-8.862-3.953l-.456-1.19a.87.87 0 0 1 .502-1.126l.004-.001z" fill="#2F3D6C"/>
    <path d="M132.17 73.47a.906.906 0 0 1-.472.412l-2.963 1.135a6.862 6.862 0 0 1-8.868-3.957l-.456-1.191a.869.869 0 0 1 .499-1.122l.658-.253a.866.866 0 0 0-.043.72l.455 1.192a6.864 6.864 0 0 0 3.611 3.81 6.862 6.862 0 0 0 5.249.14l2.33-.886z" fill="#495C91"/>
    <path d="m122.605 69.908 2.129-.815a3.213 3.213 0 0 1 4.149 1.85l.431 1.125a.495.495 0 0 1-.285.638l-1.617.62a3.74 3.74 0 0 1-4.83-2.155l-.249-.65a.474.474 0 0 1 .274-.613h-.002z" fill="#495C91"/>
    <path d="M123.506 104.045h2.149v12.989h-2.149v-12.989zM133.453 113.249l-7.789 3.787v-12.991c2.347-1.792 4.888-2.91 7.798-2.74l-.009 11.944zM115.706 113.249l7.8 3.787v-12.991c-2.618-1.548-5.135-2.713-7.373-2.532l-.427 11.736z" fill="#F5F9FF"/>
    <path d="M123.506 105.092h2.149v12.989h-2.149v-12.989z" fill="#C53F24"/>
    <path d="m133.453 114.294-7.798 3.787v-12.989l7.798-3.787v12.989zM115.706 114.294l7.8 3.787v-12.989l-7.8-3.787v12.989z" fill="#F05E47"/>
    <path d="m111.941 114.116 29.683 5.667a.701.701 0 0 1 .556.819l-1.569 8.216a.701.701 0 0 1-.818.555l-29.683-5.667a4.88 4.88 0 0 1-3.879-5.71 4.887 4.887 0 0 1 2.051-3.122 4.883 4.883 0 0 1 3.659-.756v-.002zM148.091 110.713a6.139 6.139 0 1 0 0-12.278 6.139 6.139 0 0 0 0 12.278z" fill="#4286F1"/>
    <path d="m134.165 116.392 2.328-1.394a2.562 2.562 0 1 0-2.631-4.396l-2.328 1.393a2.563 2.563 0 0 0 2.631 4.397z" fill="#F0A284"/>
    <path d="m132.634 113.954 2.432-1.456a3.585 3.585 0 0 0-3.681-6.152l-2.433 1.456a3.584 3.584 0 1 0 3.682 6.152z" fill="#F0A284"/>
    <path d="M133.905 104.286a5.35 5.35 0 1 0 3.838 9.986l12.332-4.739a5.349 5.349 0 1 0-3.837-9.986l-12.333 4.739z" fill="#F0A284"/>
    <path d="m134.165 116.392 2.328-1.394a2.562 2.562 0 1 0-2.631-4.396l-2.328 1.393a2.563 2.563 0 0 0 2.631 4.397z" fill="#F0A284"/>
    <path d="M153.164 102.626a5.332 5.332 0 0 0-1.939-2.474 5.36 5.36 0 0 1 1.362 4.871 5.351 5.351 0 0 1-3.299 3.833l-11.594 4.459-.733.28c-.211.082-.427.15-.647.204a2.526 2.526 0 0 1-.614.514l-.477.282-1.849 1.109a2.52 2.52 0 0 1-1.272.374 2.56 2.56 0 0 1-1.264-.308 2.556 2.556 0 0 0 3.335.626l2.33-1.395c.231-.138.439-.311.617-.514a5.54 5.54 0 0 0 .641-.202l12.342-4.737a5.345 5.345 0 0 0 3.42-4.865 5.332 5.332 0 0 0-.359-2.057z" fill="#FFB7A1"/>
    <path d="M102.081 110.713a6.14 6.14 0 1 0 .002-12.278 6.14 6.14 0 0 0-.002 12.278z" fill="#4286F1"/>
    <path d="m118.632 111.991-2.328-1.393a2.562 2.562 0 1 0-2.631 4.396l2.328 1.394a2.563 2.563 0 0 0 2.631-4.397z" fill="#F0A284"/>
    <path d="m121.213 107.796-2.433-1.456a3.586 3.586 0 0 0-3.682 6.152l2.433 1.456a3.584 3.584 0 1 0 3.682-6.152z" fill="#F0A284"/>
    <path d="M103.927 99.563a5.35 5.35 0 1 0-3.837 9.986l12.332 4.739a5.35 5.35 0 1 0 3.837-9.986l-12.332-4.739z" fill="#F0A284"/>
    <path d="m118.632 111.991-2.328-1.393a2.562 2.562 0 1 0-2.631 4.396l2.328 1.394a2.563 2.563 0 0 0 2.631-4.397z" fill="#F0A284"/>
    <path d="M97.01 102.626a5.324 5.324 0 0 1 1.937-2.474 5.358 5.358 0 0 0 1.938 8.704l11.594 4.459.733.28c.211.082.427.15.647.204.176.203.383.376.613.514l.477.282 1.851 1.109c.383.236.821.365 1.27.374.441.008.876-.098 1.264-.308a2.554 2.554 0 0 1-3.334.626l-2.33-1.395a2.56 2.56 0 0 1-.617-.514 5.556 5.556 0 0 1-.642-.202l-12.332-4.737a5.335 5.335 0 0 1-2.97-2.825 5.35 5.35 0 0 1-.099-4.097zM136.024 110.821v.002c.253.586.934.856 1.52.603l8.851-3.823c.586-.253.856-.934.603-1.52l-.001-.001a1.156 1.156 0 0 0-1.519-.603l-8.852 3.823a1.155 1.155 0 0 0-.602 1.519z" fill="#FFB7A1"/>
    <path d="m101.104 105.394-.001.001a1.157 1.157 0 0 0 .603 1.52l8.851 3.823a1.156 1.156 0 0 0 1.519-.603l.001-.002a1.156 1.156 0 0 0-.603-1.519l-8.851-3.823a1.156 1.156 0 0 0-1.519.603z" fill="#FFB7A1"/>
</svg>
