<svg width="306" height="186" viewBox="0 0 306 186" fill="none" xmlns="http://www.w3.org/2000/svg">
    <path d="M306 36.775h-9.04c0-1.157.476-2.267 1.324-3.085a4.604 4.604 0 0 1 3.196-1.278c1.199 0 2.349.46 3.196 1.278A4.286 4.286 0 0 1 306 36.775z" fill="#EBECFD"/>
    <path d="M300.921 36.775h-12.969a6.15 6.15 0 0 1 1.899-4.426 6.606 6.606 0 0 1 4.585-1.833c1.72 0 3.369.66 4.586 1.833a6.15 6.15 0 0 1 1.899 4.426z" fill="#EBECFD"/>
    <path d="M295.216 36.775h-15.83a7.423 7.423 0 0 1 .562-2.965c.39-.943.97-1.8 1.707-2.524a7.932 7.932 0 0 1 2.585-1.692 8.17 8.17 0 0 1 6.123 0 7.942 7.942 0 0 1 2.585 1.692 7.64 7.64 0 0 1 1.706 2.524c.389.942.58 1.95.562 2.965zM268.753 51h-5.68c.021-.714.33-1.391.861-1.889a2.9 2.9 0 0 1 1.981-.776 2.9 2.9 0 0 1 1.982.776c.53.498.839 1.175.861 1.889h-.005z" fill="#EBECFD"/>
    <path d="M265.555 51h-8.163a3.88 3.88 0 0 1 1.23-2.724 4.161 4.161 0 0 1 2.851-1.12c1.066 0 2.089.402 2.852 1.12a3.88 3.88 0 0 1 1.23 2.724z" fill="#EBECFD"/>
    <path d="M261.963 51H252c0-1.275.525-2.498 1.459-3.4a5.073 5.073 0 0 1 3.523-1.409c1.321 0 2.588.507 3.522 1.409a4.722 4.722 0 0 1 1.459 3.4z" fill="#EBECFD"/>
    <path d="M34.852 107.735v11.827a27.454 27.454 0 0 1-14.177-11.827h14.177z" fill="#E5E7FD"/>
    <path d="M34.852 68.272v18.021L17.032 96.52a26.669 26.669 0 0 1 1.948-12.984 27.26 27.26 0 0 1 3.175-5.614 27.996 27.996 0 0 1 9.753-8.339 27.64 27.64 0 0 1 2.944-1.311z" fill="#F3F4FE"/>
    <path d="M100.07 45.187v113.466H51.515a16.645 16.645 0 0 1-3.343-5.805 16.558 16.558 0 0 1-.843-4.799v-.467a16.593 16.593 0 0 1 2.05-8.066 16.754 16.754 0 0 1 5.891-6.16l.025-.015a16.502 16.502 0 0 1 1.71-.912l.036-.017a16.613 16.613 0 0 1 6.938-1.508H84.9a4.831 4.831 0 0 0 4.46-2.993 4.834 4.834 0 0 0 .364-1.851c0-.144 0-.286-.02-.425a4.83 4.83 0 0 0-4.804-4.406H44.269a27.444 27.444 0 0 1-5.309-.507V67.074c.219-.044.437-.087.658-.126a27.411 27.411 0 0 1 4.969-.453h30.056a4.473 4.473 0 0 0 4.472-4.506c-.018-2.484-2.112-4.446-4.59-4.446H63.988a16.643 16.643 0 0 1-11.794-4.886 16.887 16.887 0 0 1-2.044-2.482 16.533 16.533 0 0 1-2.273-4.983l52.192-.005z" fill="#E5E7FD"/>
    <path d="M54.724 66.495 39.62 75.597l-.658.397v-8.92c.218-.044.437-.087.658-.126a27.413 27.413 0 0 1 4.968-.453h10.137zM90.082 45.187l-.581.35-19.922 12.006h-5.59a16.643 16.643 0 0 1-11.793-4.886 16.887 16.887 0 0 1-1.382-1.565l10.284-5.554.649-.35h28.335zM39.743 119.84l-.124.07-.661.367v-.437h.785zM38.958 108.061V97.74l.66-.383 60.452-35.171v24.107l-60.72 32.019-.392-10.251zM55.305 133.341a16.5 16.5 0 0 1 1.71-.912l-1.71.912zM100.07 92.98v16.497l-22.043 11.752H47.128l2.6-1.389 12.006-6.404L100.07 92.98z" fill="#F3F4FE"/>
    <path d="M104.231 45.187h59.038v113.464h-59.038V45.187z" fill="#E5E7FD"/>
    <path d="M153.621 45.187h-27.377l-22.013 12.306v18.501l49.39-30.807zM163.269 62.186l-59.038 35.556v22.535l59.038-33.981v-24.11zM163.269 92.98l-59.038 32.606v16.469l59.038-32.578V92.98z" fill="#F3F4FE"/>
    <path d="M38.96 67.074a27.687 27.687 0 0 0-4.108 1.198v51.29c.263.099.529.191.797.278.706.236 1.426.442 2.156.619.383.094.768.177 1.155.248.219.045.438.085.659.122V66.94c-.221.047-.44.09-.659.134zm65.877-21.536h61.261v-4.832H47.314v.157a16.665 16.665 0 0 0 .673 4.675h52.083v113.115H51.515c.218.249.447.497.68.723l.072.07a16.707 16.707 0 0 0 4.854 3.338l.425.186c.455.192.917.363 1.391.512h107.161v-4.829h-61.261V45.538z" fill="#7986BF"/>
    <path d="M168.928 173.289V28.438h-5.659v144.851a1.958 1.958 0 0 1-1.96 1.955 1.963 1.963 0 0 0-1.96 1.96v4.456h13.486v-4.451a1.951 1.951 0 0 0-1.208-1.811 1.962 1.962 0 0 0-.749-.149 1.965 1.965 0 0 1-1.38-.577 1.964 1.964 0 0 1-.57-1.383zM40.257 173.289V28.438h-5.659v144.851a1.962 1.962 0 0 1-1.96 1.955 1.962 1.962 0 0 0-1.96 1.96v4.456h13.486v-4.451a1.961 1.961 0 0 0-1.208-1.811 1.967 1.967 0 0 0-.75-.149 1.962 1.962 0 0 1-1.95-1.96z" fill="#7986BF"/>
    <path d="M176.248 22.702v.603a5.679 5.679 0 0 1-3.51 5.252 5.684 5.684 0 0 1-2.176.432H52.28c3.117-3.083-2.14-11.984 2.243-11.978h61.738c2.396.007 3.969 0 6.397 0h47.904a5.689 5.689 0 0 1 4.023 1.666 5.68 5.68 0 0 1 1.663 4.025z" fill="#7986BF"/>
    <path d="M172.741 25.089v.368a3.53 3.53 0 0 1-2.178 3.257 3.527 3.527 0 0 1-1.35.268H52.28c3.116-3.084-1.61-7.429 2.773-7.423 2.395.01 41.862 0 58.668 0h55.492a3.532 3.532 0 0 1 3.528 3.53zM137.597 155.846v25.944H132.8v-25.944a3.002 3.002 0 0 0-2.998-2.998h-81.64a16.558 16.558 0 0 1-.843-4.799h82.47a7.804 7.804 0 0 1 7.808 7.797z" fill="#969ECC"/>
    <path d="M241.306 181.626h-35.22a2.186 2.186 0 0 0-2.186 2.186v.002c0 1.207.979 2.186 2.186 2.186h35.22a2.186 2.186 0 0 0 2.186-2.186v-.002a2.185 2.185 0 0 0-2.186-2.186zM199.933 181.626H3.113a2.186 2.186 0 0 0-2.186 2.186v.002c0 1.207.978 2.186 2.186 2.186h196.82a2.186 2.186 0 0 0 2.186-2.186v-.002a2.186 2.186 0 0 0-2.186-2.186z" fill="#D2D6FA"/>
    <path d="M14.231 58.574a2.504 2.504 0 0 1 2.097-2.097l3.313-.509a2.489 2.489 0 0 0 0-.745l-3.313.497a2.506 2.506 0 0 0-2.097 2.854z" fill="#0C314C"/>
    <path d="M55.218 36.458c5.56 0 10.067-4.507 10.067-10.067 0-5.56-4.507-10.068-10.067-10.068-5.56 0-10.068 4.507-10.068 10.068 0 5.56 4.507 10.067 10.068 10.067z" fill="#153E63"/>
    <path d="M63.976 26.823a10.06 10.06 0 0 1-4.747 8.803 10.07 10.07 0 1 0-9.32-17.793 10.078 10.078 0 0 1 14.067 8.99z" fill="#396E96"/>
    <path d="m39.45 41.833 1.89-.047a8.68 8.68 0 1 0-.437-17.353l-1.89.047a8.68 8.68 0 0 0 .437 17.353z" fill="#153E63"/>
    <path d="m32.549 39.97 1.89-.047a8.68 8.68 0 0 0-.437-17.353l-1.89.047a8.68 8.68 0 0 0 .437 17.353z" fill="#153E63"/>
    <path d="m56.117 29.752.174 6.86a3.767 3.767 0 1 1-7.532.192l-.172-6.861a3.766 3.766 0 0 1 7.53-.192z" fill="#F5A491"/>
    <path d="m56.117 29.752.134 5.278c-2.472.581-5.04.63-7.532.142l-.132-5.23a3.766 3.766 0 0 1 7.53-.19z" fill="#EF927F"/>
    <path d="m61.15 14.313.017 1.987.012 1.37.077 8.105a7.852 7.852 0 0 1-7.775 7.919 13.049 13.049 0 0 1-13.165-12.917l-.052-5.714a7.107 7.107 0 0 1 7.027-7.159l5.838-.052h1.418a6.533 6.533 0 0 1 6.602 6.461z" fill="#F5A491"/>
    <path d="M52.756 33.689c.236.012.474.017.713.015a7.85 7.85 0 0 0 7.775-7.922l-.075-8.103-.012-1.369-.015-1.987a6.538 6.538 0 0 0-6.598-6.473H53.8a6.538 6.538 0 0 1 6.21 6.458l.018 1.988.012 1.368.075 8.103a7.85 7.85 0 0 1-7.358 7.922z" fill="#FFC4AF"/>
    <path d="m61.15 14.313.017 1.987.012 1.37a6.46 6.46 0 0 1-8.043-9.828h1.418a6.533 6.533 0 0 1 6.596 6.471z" fill="#EF927F"/>
    <path d="M57.914 23.15c.411-.01.736-.378.724-.823-.01-.444-.353-.796-.765-.786-.411.01-.736.38-.724.824.01.444.353.796.765.786zM51.183 23.293c.411-.01.736-.38.724-.824-.01-.444-.353-.796-.765-.786-.411.01-.736.38-.724.824.01.444.353.796.765.785z" fill="#230D30"/>
    <path d="M37.98 27.62a6.841 6.841 0 1 0 0-13.682 6.841 6.841 0 0 0 0 13.682z" fill="#153E63"/>
    <path d="M23.65 31.292v.223a8.668 8.668 0 0 0 4.248 7.246 8.673 8.673 0 0 1-3.281-6.583v-.223a8.675 8.675 0 0 1 7.755-8.622 6.843 6.843 0 0 1 9.951-7.84 6.841 6.841 0 0 0-10.915 7.174 8.677 8.677 0 0 0-7.758 8.625z" fill="#0C314C"/>
    <path d="M30.678 44.517a6.18 6.18 0 1 0 0-12.36 6.18 6.18 0 0 0 0 12.36z" fill="#153E63"/>
    <path d="M27.429 49.572a4.973 4.973 0 1 0 0-9.946 4.973 4.973 0 0 0 0 9.946z" fill="#153E63"/>
    <path d="M25.451 52.953a4.037 4.037 0 1 0 0-8.074 4.037 4.037 0 0 0 0 8.074z" fill="#153E63"/>
    <path d="M21.512 56.303a3.51 3.51 0 1 0 0-7.02 3.51 3.51 0 0 0 0 7.02z" fill="#153E63"/>
    <path d="M19.152 55.387a3.432 3.432 0 0 1-.395-1.528 3.515 3.515 0 0 1 3.423-3.597c0-.087-.017-.176-.02-.266a4.004 4.004 0 0 1 1.028-2.79c.069-.078.14-.154.216-.225a4.82 4.82 0 0 1-.2-1.28v-.139a4.968 4.968 0 0 1 2.381-4.227 5.818 5.818 0 0 1-.288-1.242 6.178 6.178 0 0 1 10.634-5.025 6.18 6.18 0 0 0-11.426 3.412c.01.64.122 1.275.33 1.88a4.968 4.968 0 0 0-2.183 5.642 4.04 4.04 0 0 0-1.242 3.016c0 .09 0 .179.017.265a3.507 3.507 0 0 0-2.27 6.104h-.005z" fill="#0C314C"/>
    <path d="M40.907 26.366a3.319 3.319 0 1 0 0-6.637 3.319 3.319 0 0 0 0 6.637z" fill="#F5A491"/>
    <path d="M39.916 23.11a1.428 1.428 0 0 0 .91 1.296.41.41 0 0 0 .546-.402l-.048-1.864a.414.414 0 0 0-.603-.357 1.43 1.43 0 0 0-.805 1.326z" fill="#EF927F"/>
    <path d="m20.622 56.757.002-.002a.733.733 0 0 0-.155-1.025l-2.04-1.504a.733.733 0 0 0-1.024.155l-.001.002a.733.733 0 0 0 .154 1.025l2.04 1.504c.325.24.784.17 1.024-.155z" fill="#CEB2A5"/>
    <path d="M42.41 18.894a7.209 7.209 0 1 0 0-14.418 7.209 7.209 0 0 0 0 14.418z" fill="#153E63"/>
    <path d="M35.931 14.845a7.204 7.204 0 0 1 13.489-4.837 7.205 7.205 0 0 0-13.663-1.02 7.204 7.204 0 0 0 .174 5.857z" fill="#0C314C"/>
    <path d="M53.342 14.962a7.209 7.209 0 1 0 0-14.418 7.209 7.209 0 0 0 0 14.418z" fill="#153E63"/>
    <path d="M61.12 20.248a7.209 7.209 0 1 0 0-14.418 7.209 7.209 0 0 0 0 14.418z" fill="#153E63"/>
    <path d="M47.018 4.295a7.204 7.204 0 0 1 11.625 3.62c.212-.028.425-.043.638-.048a7.203 7.203 0 0 1 6.508 10.664A7.204 7.204 0 0 0 60.303 5.88a7.203 7.203 0 0 0-13.284-1.585z" fill="#396E96"/>
    <path d="M52.257 12.587a3.853 3.853 0 1 0 0-7.706 3.853 3.853 0 0 0 0 7.706z" fill="#396E96"/>
    <path d="M20.456 72.483a1.97 1.97 0 1 0-3.864-.75l-1.303 6.705a1.97 1.97 0 1 0 3.865.75l1.302-6.705z" fill="#F5A491"/>
    <path d="M24.043 82.4v.805c-.857 0-2.864 0-2.864-1.766V79.39a.452.452 0 0 0-.452-.454H13.92a.457.457 0 0 0-.454.454v2.05c0 1.766-2.007 1.766-2.864 1.766V82.4c1.721 0 2.059-.353 2.059-.962V79.39a1.262 1.262 0 0 1 1.26-1.26h6.806a1.26 1.26 0 0 1 1.256 1.26v2.05c0 .608.338.96 2.06.96z" fill="#FFF2EE"/>
    <path d="M21.983 77.793v1.319h-9.322v-1.31a.855.855 0 0 1 .854-.854h7.619a.854.854 0 0 1 .85.845z" fill="#CEB2A5"/>
    <path d="M12.66 78.317h9.323v.785h-9.322v-.785z" fill="#FFF2EE"/>
    <path d="M18.603 97.059h-2.561a8.056 8.056 0 0 1-7.969-9.228l.38-2.564a5.378 5.378 0 0 1 5.32-4.595h7.098a5.378 5.378 0 0 1 5.32 4.595l.38 2.564a8.056 8.056 0 0 1-7.968 9.228z" fill="#E5D0C7"/>
    <path d="M11.007 86.48H23.64v4.68a2.077 2.077 0 0 1-2.076 2.076h-8.48a2.077 2.077 0 0 1-2.077-2.077v-4.68z" fill="#FFF2EE"/>
    <path d="M11.007 85.98H23.64v4.68a2.077 2.077 0 0 1-2.076 2.077h-8.48a2.077 2.077 0 0 1-2.077-2.077v-4.68z" fill="#CEB2A5"/>
    <path d="M11.002 85.59h12.633v.393H11.003v-.393z" fill="#FFF2EE"/>
    <path d="M11.459 88.04h-.338a.44.44 0 0 1-.437-.515l.318-1.935h.576l.318 1.935a.444.444 0 0 1-.437.514z" fill="#FFF2EE"/>
    <path d="M44.447 161.733h11.09v16.944h-11.09v-16.944z" fill="#F5A491"/>
    <path d="M44.447 161.733h11.09v11.228h-11.09v-11.228z" fill="#EF927F"/>
    <path d="m63.221 179.186-13.227-.057a6.615 6.615 0 0 1 13.227.057z" fill="#FFF2EE"/>
    <path d="M64.458 179.368a2.27 2.27 0 0 1-2.275 2.258l-5.713-.028-13.02-.054a1.545 1.545 0 0 1-1.56-1.491 1.543 1.543 0 0 1 1.456-1.592l12.768-.932 5.922-.432a2.267 2.267 0 0 1 2.238 1.364c.123.286.186.595.184.907zM57.272 174.583a1.76 1.76 0 1 0 0-3.522 1.76 1.76 0 0 0 0 3.522z" fill="#CEB2A5"/>
    <path d="m54.977 46.539 10.53 7.144 4.61 3.127a5.488 5.488 0 0 0 7.694-7.563 5.49 5.49 0 0 0-1.529-1.521l-5.256-3.567-.616-.417-9.27-6.29a5.49 5.49 0 0 0-6.163 9.087z" fill="#EF927F"/>
    <path d="M67.938 53.593a5.49 5.49 0 0 0 8.88 2.77l.16-.144a2.808 2.808 0 0 0 .208-.204c.035-.032.065-.067.097-.102.077-.084.154-.168.224-.248l.149-.191a5.672 5.672 0 0 0 .5-.815c.034-.063.064-.127.091-.194.065-.139.124-.283.176-.432l5.483-15.523.61-1.739a5.49 5.49 0 1 0-10.351-3.659L68.07 50.37a5.423 5.423 0 0 0-.132 3.224z" fill="#F5A491"/>
    <path d="M83.33 38.76c3.81-1.428 5.985-5.02 4.86-8.023-1.126-3.004-5.126-4.282-8.935-2.854-3.81 1.427-5.985 5.018-4.86 8.022 1.126 3.004 5.126 4.282 8.935 2.854z" fill="#F5A491"/>
    <path d="m70.41 43.742.616.417 3.165-8.955.2-.574c.06-.17.129-.335.207-.497.639-1.96 2.382-3.76 4.79-4.692l.091-.035c3.81-1.428 7.813-.149 8.943 2.854.025.065.047.127.067.192a4.677 4.677 0 0 0-.296-1.712c-1.125-3.005-5.124-4.282-8.942-2.856-2.462.924-4.24 2.75-4.889 4.74a5.43 5.43 0 0 0-.196.481L70.41 43.742z" fill="#FFC4AF"/>
    <path d="m76.106 56.132.159-.146a2.72 2.72 0 0 0 .149-.145.46.46 0 0 0 .06-.06c.032-.032.064-.064.096-.101.077-.082.154-.169.221-.248a5.207 5.207 0 0 0 .556-.825c.033-.06.065-.12.095-.184.03-.065.062-.127.092-.191.065-.142.122-.286.174-.435l5.259-14.892.213-.596a8.69 8.69 0 0 0 .994-.52c2.82-1.708 4.267-4.704 3.306-7.27-.519-1.386-1.652-2.404-3.098-2.958 1.789.464 3.23 1.58 3.821 3.192 1.07 2.851-.837 6.232-4.295 7.79L78.443 54.03c-.052.149-.112.293-.176.434-.03.065-.057.13-.092.194-.035.065-.06.122-.094.181-.12.22-.256.432-.405.634l-.15.191c-.069.087-.146.174-.223.248-.032.038-.062.07-.097.105l-.057.057c-.05.052-.097.1-.151.146l-.16.145a5.491 5.491 0 0 1-5.402 1.006c-.067-.025-.137-.05-.204-.08a5.5 5.5 0 0 0 4.874-1.16z" fill="#EF927F"/>
    <path d="m70.38 40.782 11.183 4.482a1.056 1.056 0 0 0 .785-1.96l-11.183-4.482a1.056 1.056 0 0 0-.785 1.96zM72.474 38.54l9.643 3.864a1.056 1.056 0 0 0 .785-1.96L73.26 36.58a1.056 1.056 0 0 0-.786 1.96z" fill="#D7C2B7"/>
    <path d="M23 161.733h11.09v16.944H23v-16.944z" fill="#F5A491"/>
    <path d="M23 161.733h11.09v11.228H23v-11.228z" fill="#EF927F"/>
    <path d="M21.599 180.237h13.227a6.614 6.614 0 0 0-13.227 0z" fill="#fff"/>
    <path d="M35.154 181.206H20.96a2.237 2.237 0 0 1-2.236-2.236 2.237 2.237 0 0 1 2.462-2.235l14.124 1.371a1.556 1.556 0 0 1 1.286 2.145 1.55 1.55 0 0 1-1.442.955z" fill="#D7C2B7"/>
    <path d="M18.725 178.97a2.236 2.236 0 0 0 2.235 2.236h2.335a2.233 2.233 0 0 1-2.247-1.841 2.235 2.235 0 0 1 1.467-2.506l-1.336-.129a2.038 2.038 0 0 0-.221 0 2.225 2.225 0 0 0-1.581.657 2.234 2.234 0 0 0-.652 1.583z" fill="#E5D0C7"/>
    <path d="M28.214 176.342a1.76 1.76 0 1 0 0-3.522 1.76 1.76 0 0 0 0 3.522z" fill="#D7C2B7"/>
    <path d="M39.834 170.601h17.44l.283-5.298 5-93.596h-17.44l-5 93.596-.283 5.298z" fill="#CEB2A5"/>
    <path d="M18.943 171.95h17.438l.91-5.298 15.276-88.986H34.982l-15.13 88.986-.909 5.298z" fill="#D7C2B7"/>
    <path d="M42.571 64.372h19.982v8.572A19.982 19.982 0 0 1 42.57 92.926V64.372z" fill="#D7C2B7"/>
    <path d="M42.576 64.372h19.982v3.204H42.576v-3.204z" fill="#CEB2A5"/>
    <path d="M42.576 49.907h19.982v14.465H42.576V49.907z" fill="#fff"/>
    <path d="M42.576 49.907h19.982v6.62l-19.982-1.726v-4.894z" fill="#FFF2EE"/>
    <path d="M10.684 70.137a5.465 5.465 0 0 0 9.273 4.223l21.549-20.811 7.027-6.782a5.476 5.476 0 1 0-7.608-7.88L12.358 66.487a5.465 5.465 0 0 0-1.674 3.651z" fill="#F5A491"/>
    <path d="M17.666 77.395c3.165-2.54 3.996-6.76 1.855-9.429-2.14-2.667-6.44-2.771-9.606-.232-3.165 2.54-3.996 6.761-1.856 9.429 2.14 2.667 6.441 2.771 9.607.232z" fill="#F5A491"/>
    <path d="M6.972 72.53a6 6 0 0 0 1.158 2.876c2.65 3.738 8.038 1.642 8.326-1.414l4.087-3.947 24.319-23.489a5.466 5.466 0 0 0 1.306-5.912c-.589-1.528 1.28-2.82 2.447-1.67l.05.05a5.464 5.464 0 0 1 1.406 4.99v.013c-.02.092-.043.184-.067.274l-.015.05c-.023.079-.05.158-.075.248l-.02.052c-.027.084-.06.164-.092.248a5.612 5.612 0 0 1-.44.857l-.022.035a6.878 6.878 0 0 1-.146.221l-.038.047c-.05.07-.101.137-.154.204-.012.015-.024.032-.04.047-.056.07-.116.14-.178.206l-.025.03c-.072.08-.147.157-.226.234L20.128 74.198c-.127.29-.27.572-.427.845l-.015.025-.015.022a8.486 8.486 0 0 1-2.405 2.603l-.06.043c-.121.084-.248.169-.372.248l-.037.025c-.137.084-.276.166-.418.248l-.052.025c-.119.067-.248.127-.365.187l-.084.04a8.603 8.603 0 0 1-.842.332l-.097.032c-.12.038-.249.072-.36.105l-.07.02c-.14.038-.282.07-.425.096l-.08.018a5.75 5.75 0 0 1-.35.057l-.101.015a7.413 7.413 0 0 1-.84.057H12.191c-.134 0-.27-.022-.405-.037h-.079c-.11-.015-.219-.035-.328-.055l-.097-.02a5.773 5.773 0 0 1-.77-.213l-.04-.013A5.41 5.41 0 0 1 8.056 77.2a5.712 5.712 0 0 1-1.084-4.67z" fill="#EF927F"/>
    <path d="M37.953 47.565v.186a5.651 5.651 0 0 0 3.255 5.117l6.66-7.142a5.465 5.465 0 0 0 1.467-3.813h-5.73a5.648 5.648 0 0 0-5.652 5.652z" fill="#EF927F"/>
    <path d="M63.124 41.92H45.473a5.651 5.651 0 0 0-5.651 5.652v.186a5.651 5.651 0 0 0 5.65 5.651h17.652a5.651 5.651 0 0 0 5.651-5.65v-.187a5.651 5.651 0 0 0-5.65-5.651z" fill="#fff"/>
    <path d="M41.267 51.54a5.638 5.638 0 0 0 4.206 1.877h17.654a5.654 5.654 0 0 0 5.651-5.651v-.201a5.649 5.649 0 0 0-5.51-5.65 5.626 5.626 0 0 1 1.441 3.772v.189a5.653 5.653 0 0 1-5.651 5.663h-17.79z" fill="#FFF2EE"/>
    <path d="M46.355 91.656c6.413 0 11.612-5.199 11.612-11.613 0-6.413-5.199-11.613-11.612-11.613-6.414 0-11.613 5.2-11.613 11.613 0 6.414 5.199 11.613 11.613 11.613zM58.87 67.576h-1.176v-3.204h1.175v3.204zM53.891 67.576h-1.175v-3.204h1.175v3.204zM48.916 67.576H47.74v-3.204h1.175v3.204z" fill="#D7C2B7"/>
    <path d="M18.943 171.95h17.438l.91-5.298H19.851l-.909 5.298z" fill="#CEB2A5"/>
    <path d="M39.834 170.601h17.44l.283-5.298h-17.44l-.283 5.298z" fill="#BC988A"/>
    <path d="M19.852 166.652h3.307l.3-1.754 13.312-78.29 1.52-8.942h.072c.013-.288.04-.574.075-.857v-.047l.144-.85a11.613 11.613 0 0 1 4.563-7.034 11.63 11.63 0 0 0-8.17 8.788c-.057.278-.104.559-.142.84l-14.98 88.146z" fill="#E5D0C7"/>
    <path d="M18.943 171.95h3.306l.91-5.298h-3.307l-.909 5.298zM81.67 21.942l-.278 2.43-.88 7.61c-.077.678-.517 1.173-1.035 1.173h-3.155c-.52 0-.959-.5-1.036-1.172l-.88-7.61-.278-2.431h7.543z" fill="#D7C2B7"/>
    <path d="m86.303 23.216-.296 2.576h-7.402l-.296-2.576h7.994z" fill="#CEB2A5"/>
    <path d="M85.923 21.46h-7.36a.39.39 0 0 0-.39.39v1.796c0 .215.174.39.39.39h7.36a.39.39 0 0 0 .39-.39V21.85a.39.39 0 0 0-.39-.39z" fill="#CEB2A5"/>
    <path d="M80.557 21.06s-1.291-5.41 2.549-9.405c3.137-3.261-2.293-9.402-2.293-9.402s7.758 6.049 3.23 10.22c-4.484 4.123-3.486 8.587-3.486 8.587z" fill="#D7C2B7"/>
    <path d="M81.024 20.436s1.024-3.137 4.2-3.974c2.596-.678 1.754-5.465 1.754-5.465s2.05 5.465-1.535 6.168c-3.542.703-4.419 3.271-4.419 3.271zM87.118 22.178H77.37c-.245 0-.445.199-.445.444v1.687c0 .246.2.445.445.445h9.748a.445.445 0 0 0 .444-.445v-1.687c0-.245-.199-.444-.444-.444z" fill="#D7C2B7"/>
    <path d="M82.306 30.904a1.94 1.94 0 1 0 0-3.88 1.94 1.94 0 0 0 0 3.88z" fill="#fff"/>
    <path d="M85.44 26.696h-.15a3.045 3.045 0 0 0-3.046 3.046v4.22a3.045 3.045 0 0 0 3.045 3.045h.152a3.045 3.045 0 0 0 3.045-3.045v-4.22a3.045 3.045 0 0 0-3.045-3.046z" fill="#F5A491"/>
    <path d="M56.353 25.705a2.154 2.154 0 0 1-.634 1.52l-.154.14c-.384.319-.868.495-1.368.496h-.088a2.154 2.154 0 0 1-2.136-1.987v-.176a.41.41 0 0 1 .418-.415h3.552a.42.42 0 0 1 .41.422z" fill="#962F4A"/>
    <path d="M54.154 27.513c0 .112-.011.224-.034.333a2.152 2.152 0 0 1-2.137-1.987 1.708 1.708 0 0 1 2.171 1.654z" fill="#E1617F"/>
    <path d="M55.856 25.283c-.017.422-.668.745-1.468.745-.8 0-1.448-.34-1.463-.763l2.931.018z" fill="#fff"/>
    <path d="M226.862 172.166V47.869h-5.997v124.297a2.077 2.077 0 0 1-2.079 2.076c-.551 0-1.079.219-1.468.609-.39.389-.608.917-.608 1.468v5.577h14.308v-5.577c0-.551-.219-1.079-.609-1.468a2.073 2.073 0 0 0-1.468-.609 2.076 2.076 0 0 1-2.079-2.076z" fill="#7986BF"/>
    <path d="M238.522 17.495h-29.317a2.603 2.603 0 0 0-2.603 2.603v36.858a2.604 2.604 0 0 0 2.603 2.603h29.317a2.603 2.603 0 0 0 2.603-2.603V20.098a2.603 2.603 0 0 0-2.603-2.603z" fill="#7986BF"/>
    <path d="M238.447 19.946H209.28a.592.592 0 0 0-.592.592v35.978c0 .327.265.592.592.592h29.167a.59.59 0 0 0 .591-.592V20.538a.59.59 0 0 0-.591-.592z" fill="#fff"/>
    <path d="M235.814 32.22h-1.393a54.497 54.497 0 0 0-.092-1.376 20.5 20.5 0 0 0-.1-.962 3.23 3.23 0 0 0-2.302-3.015c-2.01-.865-4.752-1.197-6.908-1.394a18.045 18.045 0 0 0-4.817.313c-1.453.264-3.502.596-4.839 1.275a3.24 3.24 0 0 0-1.863 2.732c-.027.263-.052.621-.079 1.03-.028.41-.052.88-.077 1.377h-1.439a.561.561 0 0 0-.563.561v4.825a.563.563 0 0 0 .563.563h1.242c0 1.19-.014 2.385-.014 3.575v6.24a.361.361 0 0 0 .365.368h1.423v1.6c.027 1.226.939 1.95 2.044 1.626a1.49 1.49 0 0 0 1.101-1.453c.015-.576 0-1.155 0-1.751h11.615c0 .656-.017 1.28 0 1.9a1.476 1.476 0 0 0 1.292 1.379 1.506 1.506 0 0 0 1.696-.994c.066-.266.097-.539.092-.812v-1.49h1.439a.367.367 0 0 0 .365-.366V38.16h1.242a.562.562 0 0 0 .564-.564v-4.824a.562.562 0 0 0-.557-.551zm-19.311 12.783a1.61 1.61 0 1 1 1.608-1.617 1.616 1.616 0 0 1-1.608 1.607v.01zm-.37-6.864c-.832 0-1.14-.38-1.028-1.192 0 0-.102-3.778.151-5.664.018-.144.04-.285.06-.424v-.015a.846.846 0 0 1 .812-.745h15.213c.683 0 .953.163 1.078.745 0 .06.024.127.034.196.269 1.93.164 5.785.164 5.785.134 1.054-.119 1.314-1.182 1.314h-15.302zM231.224 45a1.607 1.607 0 0 1-1.6-1.916 1.614 1.614 0 0 1 1.266-1.272 1.61 1.61 0 0 1 1.924 1.591 1.602 1.602 0 0 1-1.59 1.587V45z" fill="#7986BF"/>
</svg>
